<svg width="79" height="19" viewBox="0 0 79 19" fill="none" xmlns="http://www.w3.org/2000/svg">
<path d="M7.52344 18.3164C6.22656 18.3164 5.09375 18.1211 4.125 17.7305C3.15625 17.3398 2.39062 16.7812 1.82812 16.0547C1.27344 15.3281 0.960938 14.4648 0.890625 13.4648L0.878906 13.2773H3.77344L3.79688 13.418C3.875 13.9023 4.08203 14.3203 4.41797 14.6719C4.75391 15.0234 5.19531 15.2969 5.74219 15.4922C6.28906 15.6797 6.91797 15.7734 7.62891 15.7734C8.33203 15.7734 8.94141 15.6758 9.45703 15.4805C9.98047 15.2773 10.3828 14.9961 10.6641 14.6367C10.9531 14.2695 11.0977 13.8438 11.0977 13.3594V13.3477C11.0977 12.7227 10.8594 12.2227 10.3828 11.8477C9.91406 11.4727 9.13281 11.1719 8.03906 10.9453L6.22266 10.5703C4.55078 10.2188 3.30469 9.64844 2.48438 8.85938C1.66406 8.07031 1.25391 7.04688 1.25391 5.78906V5.77734C1.26172 4.77734 1.53125 3.90625 2.0625 3.16406C2.60156 2.41406 3.34375 1.82812 4.28906 1.40625C5.23438 0.984375 6.3125 0.773438 7.52344 0.773438C8.75781 0.773438 9.83203 0.976562 10.7461 1.38281C11.668 1.78906 12.3906 2.35547 12.9141 3.08203C13.4453 3.80859 13.7383 4.64844 13.793 5.60156L13.8047 5.78906H10.9219L10.8984 5.64844C10.8281 5.16406 10.6445 4.75 10.3477 4.40625C10.0586 4.05469 9.67188 3.78516 9.1875 3.59766C8.70312 3.41016 8.14062 3.31641 7.5 3.31641C6.85156 3.31641 6.28516 3.41406 5.80078 3.60938C5.32422 3.79688 4.95312 4.0625 4.6875 4.40625C4.42188 4.75 4.28906 5.15234 4.28906 5.61328V5.625C4.28906 6.21875 4.52734 6.70312 5.00391 7.07812C5.48047 7.44531 6.23047 7.73828 7.25391 7.95703L9.08203 8.33203C10.2539 8.57422 11.2109 8.90234 11.9531 9.31641C12.6953 9.73047 13.2422 10.25 13.5938 10.875C13.9531 11.4922 14.1328 12.2383 14.1328 13.1133V13.125C14.1328 14.1797 13.8672 15.0977 13.3359 15.8789C12.8047 16.6602 12.0469 17.2617 11.0625 17.6836C10.0781 18.1055 8.89844 18.3164 7.52344 18.3164ZM19.1672 18V3.63281H14.0813V1.08984H27.2648V3.63281H22.1789V18H19.1672ZM24.9164 18L30.9516 1.08984H33.4945V4.125H32.6039L28.0805 18H24.9164ZM27.975 13.6289L28.7719 11.2969H36.518L37.3266 13.6289H27.975ZM37.2211 18L32.6977 4.125V1.08984H34.35L40.3852 18H37.2211ZM42.7008 18V15.6562H47.6109C48.7203 15.6562 49.5641 15.4336 50.1422 14.9883C50.7281 14.5352 51.0211 13.8828 51.0211 13.0312V13.0078C51.0211 12.4375 50.8883 11.9609 50.6227 11.5781C50.357 11.1875 49.9586 10.8984 49.4273 10.7109C48.8961 10.5156 48.2398 10.418 47.4586 10.418H42.7008V8.23828H46.9664C48.0602 8.23828 48.8883 8.02344 49.4508 7.59375C50.0211 7.16406 50.3063 6.55469 50.3063 5.76562V5.74219C50.3063 5.00781 50.0563 4.44141 49.5563 4.04297C49.0641 3.63672 48.3648 3.43359 47.4586 3.43359H42.7008V1.08984H48.2203C49.2594 1.08984 50.1578 1.26562 50.9156 1.61719C51.6734 1.96094 52.2594 2.44922 52.6734 3.08203C53.0875 3.71484 53.2945 4.46094 53.2945 5.32031V5.34375C53.2945 5.94531 53.1578 6.51172 52.8844 7.04297C52.6109 7.56641 52.2359 8.00391 51.7594 8.35547C51.2828 8.70703 50.7438 8.92578 50.1422 9.01172V9.10547C50.9313 9.17578 51.6227 9.39453 52.2164 9.76172C52.8102 10.1289 53.275 10.6055 53.6109 11.1914C53.9469 11.7773 54.1148 12.4414 54.1148 13.1836V13.207C54.1148 14.1992 53.8805 15.0547 53.4117 15.7734C52.943 16.4844 52.275 17.0352 51.4078 17.4258C50.5484 17.8086 49.5133 18 48.3023 18H42.7008ZM41.2008 18V1.08984H44.2125V18H41.2008ZM55.282 18V1.08984H58.2938V15.457H65.9813V18H55.282ZM67.1602 18V1.08984H78.0938V3.63281H70.1719V8.20312H77.6602V10.6289H70.1719V15.457H78.0938V18H67.1602Z" fill="black"/>
</svg>
